<svg width="24" height="24" viewBox="0 0 24 24" fill="none" xmlns="[http://www.w3.org/2000/svg](http://www.w3.org/2000/svg)">
<path d="M12 2C6.47715 2 2 6.47715 2 12C2 17.5228 6.47715 22 12 22C17.5228 22 22 17.5228 22 12C22 6.47715 17.5228 2 12 2ZM12 18C9.79086 18 8 16.2091 8 14C8 11.7909 9.79086 10 12 10C14.2091 10 16 11.7909 16 14C16 16.2091 14.2091 18 12 18Z" fill="#3A2D5C"/>
<path d="M12 4V6" stroke="#C8A35E" stroke-width="2" stroke-linecap="round" stroke-linejoin="round"/>
<path d="M18 12L16 12" stroke="#C8A35E" stroke-width="2" stroke-linecap="round" stroke-linejoin="round"/>
<path d="M6 12L8 12" stroke="#C8A35E" stroke-width="2" stroke-linecap="round" stroke-linejoin="round"/>
<path d="M16.929 7.07107L15.5147 8.48528" stroke="#C8A35E" stroke-width="2" stroke-linecap="round" stroke-linejoin="round"/>
<path d="M7.07107 7.07107L8.48528 8.48528" stroke="#C8A35E" stroke-width="2" stroke-linecap="round" stroke-linejoin="round"/>
<path d="M12 14C12 14.5523 11.5523 15 11 15V14C11.5523 14 12 13.5523 12 13V14Z" fill="#A399CC"/>
</svg>
